<svg width="12" height="13" viewBox="0 0 12 13" fill="none" xmlns="http://www.w3.org/2000/svg">
<g clip-path="url(#clip0_2_18)">
<path d="M11.1706 2.81649C11.626 3.06312 12 3.67361 12 4.17297V8.86509C12 9.36444 11.984 9.78311 11.9648 9.79529C11.9457 9.80747 11.9297 9.8166 11.9297 9.8166C11.9297 9.8166 11.5685 10.0374 11.1274 10.3083L9.8362 11.1C9.39512 11.371 9.00519 11.6039 8.96844 11.6176C8.93168 11.6313 8.90132 11.2355 8.90132 10.7361V5.89179C8.90132 5.39243 8.52737 4.78194 8.07191 4.53531L3.8354 2.24862C3.37835 2.00199 3.02677 1.79037 3.05234 1.77819C3.07791 1.76601 3.45825 1.53003 3.89612 1.256L5.13304 0.479561C5.56932 0.205524 5.94487 -0.0106607 5.96404 -3.75239e-06C5.98322 0.0106532 6.37315 0.220748 6.8286 0.467381L8.07191 1.14029C8.52737 1.38693 9.27367 1.79037 9.73072 2.037L11.1706 2.81649Z" fill="#231F20"/>
<path d="M3.92809 5.4853C3.47263 5.23867 3.05394 5.01183 2.9996 4.9829C2.94527 4.95397 2.52817 4.72713 2.07111 4.4805L0.827806 3.80759C0.372353 3.56095 -0.00159836 3.768 -0.00159836 4.26736V9.18784C-0.00159836 9.6872 0.370755 10.2977 0.827806 10.5443L2.07111 11.2172C2.52657 11.4639 2.94527 11.6907 2.9996 11.7196C3.05394 11.7486 3.47103 11.9754 3.92809 12.222L5.17139 12.8934C5.62685 13.1401 6.0008 12.933 6.0008 12.4337V7.51317C6.0008 7.01382 5.62845 6.40332 5.17139 6.15517L3.92809 5.48226V5.4853Z" fill="#231F20"/>
</g>
<defs>
<clipPath id="clip0_2_18">
<rect width="12" height="13" fill="white"/>
</clipPath>
</defs>
</svg>
